<?xml version="1.0" encoding="UTF-8"?>
<svg xmlns="http://www.w3.org/2000/svg" xmlns:xlink="http://www.w3.org/1999/xlink" viewBox="0 0 240 240" width="240px" height="240px">
<g id="surface1740360">
<path style=" stroke:none;fill-rule:nonzero;fill:rgb(100%,100%,100%);fill-opacity:1;" d="M 120 20 C 64.859375 20 20 64.859375 20 120 C 20 175.140625 64.859375 220 120 220 C 175.140625 220 220 175.140625 220 120 C 220 64.859375 175.140625 20 120 20 Z M 120 35 C 167.03125 35 205 72.96875 205 120 C 205 158.328125 179.785156 190.613281 145 201.257812 L 145 175.683594 C 145 166.132812 139.496094 157.941406 131.542969 153.867188 C 147.234375 150.867188 160.148438 141.992188 166.226562 130.035156 C 172.308594 118.082031 170.800781 104.515625 162.1875 93.605469 C 164.40625 86.777344 166.882812 74.804688 160.996094 65.378906 C 149.648438 65.378906 142.324219 73.160156 138.828125 77.996094 C 132.851562 76.035156 126.460938 75.015625 120 75 C 113.535156 75.003906 107.136719 76.015625 101.152344 77.96875 C 97.648438 73.128906 90.332031 65.378906 79.003906 65.378906 C 72.25 76.195312 76.425781 87.824219 78.664062 92.570312 C 69.460938 103.4375 67.511719 117.230469 73.449219 129.46875 C 79.382812 141.707031 92.449219 150.835938 108.410156 153.894531 C 101.878906 157.261719 96.988281 163.371094 95.488281 170.78125 L 88.917969 170.78125 C 82.429688 170.78125 79.910156 168.144531 76.40625 163.699219 C 72.945312 159.257812 69.226562 156.269531 64.757812 155.03125 C 62.347656 154.773438 60.722656 156.609375 62.824219 158.230469 C 69.917969 163.0625 70.40625 170.96875 73.253906 176.140625 C 75.84375 180.800781 81.148438 185 87.148438 185 L 95 185 L 95 201.257812 C 60.214844 190.613281 35 158.328125 35 120 C 35 72.96875 72.96875 35 120 35 Z M 120 35 "/>
</g>
</svg>
