<?xml version="1.0" encoding="UTF-8"?>
<svg xmlns="http://www.w3.org/2000/svg" xmlns:xlink="http://www.w3.org/1999/xlink" viewBox="0 0 240 240" width="240px" height="240px">
<g id="surface2502865">
<path style=" stroke:none;fill-rule:nonzero;fill:rgb(100%,100%,100%);fill-opacity:1;" d="M 80 30 C 52.429688 30 30 52.429688 30 80 L 30 160 C 30 187.570312 52.429688 210 80 210 L 160 210 C 187.570312 210 210 187.570312 210 160 L 210 80 C 210 52.429688 187.570312 30 160 30 Z M 80 50 L 160 50 C 176.539062 50 190 63.460938 190 80 L 190 160 C 190 176.539062 176.539062 190 160 190 L 80 190 C 63.460938 190 50 176.539062 50 160 L 50 80 C 50 63.460938 63.460938 50 80 50 Z M 170 60 C 164.476562 60 160 64.476562 160 70 C 160 75.523438 164.476562 80 170 80 C 175.523438 80 180 75.523438 180 70 C 180 64.476562 175.523438 60 170 60 Z M 120 70 C 92.429688 70 70 92.429688 70 120 C 70 147.570312 92.429688 170 120 170 C 147.570312 170 170 147.570312 170 120 C 170 92.429688 147.570312 70 120 70 Z M 120 90 C 136.539062 90 150 103.460938 150 120 C 150 136.539062 136.539062 150 120 150 C 103.460938 150 90 136.539062 90 120 C 90 103.460938 103.460938 90 120 90 Z M 120 90 "/>
</g>
</svg>
