<?xml version="1.0" encoding="UTF-8"?>
<svg xmlns="http://www.w3.org/2000/svg" xmlns:xlink="http://www.w3.org/1999/xlink" viewBox="0 0 240 240" width="240px" height="240px">
<g id="surface2501409">
<path style=" stroke:none;fill-rule:nonzero;fill:rgb(100%,100%,100%);fill-opacity:1;" d="M 224 55.496094 C 216.34375 58.894531 208.121094 61.183594 199.488281 62.214844 C 208.304688 56.9375 215.0625 48.574219 218.246094 38.609375 C 210.007812 43.496094 200.871094 47.046875 191.144531 48.96875 C 183.359375 40.671875 172.273438 35.488281 160 35.488281 C 136.433594 35.488281 117.328125 54.601562 117.328125 78.160156 C 117.328125 81.503906 117.710938 84.769531 118.433594 87.878906 C 82.96875 86.105469 51.527344 69.113281 30.472656 43.289062 C 26.808594 49.59375 24.703125 56.921875 24.703125 64.753906 C 24.703125 79.550781 32.230469 92.617188 43.679688 100.265625 C 36.6875 100.039062 30.105469 98.121094 24.351562 94.929688 C 24.351562 95.113281 24.351562 95.28125 24.351562 95.464844 C 24.351562 116.144531 39.054688 133.390625 58.585938 137.304688 C 55.007812 138.28125 51.230469 138.800781 47.335938 138.800781 C 44.59375 138.800781 41.910156 138.527344 39.3125 138.039062 C 44.742188 154.992188 60.503906 167.335938 79.175781 167.679688 C 64.574219 179.128906 46.175781 185.953125 26.175781 185.953125 C 22.734375 185.953125 19.335938 185.753906 15.992188 185.351562 C 34.878906 197.457031 57.304688 204.519531 81.40625 204.519531 C 159.902344 204.519531 202.816406 139.496094 202.816406 83.105469 C 202.816406 81.257812 202.777344 79.414062 202.695312 77.582031 C 211.039062 71.558594 218.28125 64.046875 224 55.496094 Z M 224 55.496094 "/>
</g>
</svg>
