<?xml version="1.0" encoding="UTF-8"?>
<svg xmlns="http://www.w3.org/2000/svg" xmlns:xlink="http://www.w3.org/1999/xlink" viewBox="0 0 240 240" width="240px" height="240px">
<g id="surface2509125">
<path style=" stroke:none;fill-rule:nonzero;fill:rgb(100%,100%,100%);fill-opacity:1;" d="M 215.820312 61.859375 C 213.519531 53.261719 206.738281 46.480469 198.140625 44.179688 C 182.539062 40 120 40 120 40 C 120 40 57.460938 40 41.859375 44.179688 C 33.261719 46.480469 26.480469 53.261719 24.179688 61.859375 C 20 77.460938 20 120 20 120 C 20 120 20 162.539062 24.179688 178.140625 C 26.480469 186.738281 33.261719 193.519531 41.859375 195.820312 C 57.460938 200 120 200 120 200 C 120 200 182.539062 200 198.140625 195.820312 C 206.75 193.519531 213.519531 186.738281 215.820312 178.140625 C 220 162.539062 220 120 220 120 C 220 120 220 77.460938 215.820312 61.859375 Z M 100 145.980469 L 100 94.019531 C 100 90.171875 104.171875 87.769531 107.5 89.691406 L 152.5 115.671875 C 155.828125 117.589844 155.828125 122.410156 152.5 124.328125 L 107.5 150.308594 C 104.171875 152.238281 100 149.828125 100 145.980469 Z M 100 145.980469 "/>
</g>
</svg>
